<svg width="32" height="32" viewBox="0 0 32 32" fill="none" xmlns="http://www.w3.org/2000/svg">
<path fill-rule="evenodd" clip-rule="evenodd" d="M12.6047 5.68043L27.5789 13.163C29.9182 14.3319 29.9182 17.6681 27.5789 18.837L12.6047 26.3196C9.94144 27.6504 7.07578 24.9137 8.28511 22.1943L10.4669 17.2882C10.509 17.1936 10.5463 17.0974 10.5786 17L16 17C16.5523 17 17 16.5523 17 16C17 15.4477 16.5523 15 16 15L10.5786 15C10.5463 14.9026 10.509 14.8064 10.4669 14.7118L8.28511 9.80566C7.07578 7.08632 9.94145 4.34961 12.6047 5.68043ZM1.66669 13.3333C1.66669 12.781 2.1144 12.3333 2.66669 12.3333H5.33335C5.88564 12.3333 6.33335 12.781 6.33335 13.3333C6.33335 13.8856 5.88564 14.3333 5.33335 14.3333H2.66669C2.1144 14.3333 1.66669 13.8856 1.66669 13.3333ZM2.66669 17.6667C2.1144 17.6667 1.66669 18.1144 1.66669 18.6667C1.66669 19.2189 2.1144 19.6667 2.66669 19.6667H5.33335C5.88564 19.6667 6.33335 19.2189 6.33335 18.6667C6.33335 18.1144 5.88564 17.6667 5.33335 17.6667H2.66669Z" fill="#A6A39D"/>
</svg>
